<svg width="129" height="129" viewBox="0 0 129 129" fill="none" xmlns="http://www.w3.org/2000/svg">
<path d="M100.917 27.7591C100.917 32.9367 105.114 37.134 110.292 37.134C115.47 37.134 119.667 32.9367 119.667 27.7591C119.667 22.5815 115.47 18.3843 110.292 18.3843C105.114 18.3843 100.917 22.5815 100.917 27.7591Z" fill="#FF6673"/>
<path d="M21.6776 97.202C21.6776 109.93 31.9957 120.248 44.7236 120.248C57.4515 120.248 67.7696 109.93 67.7696 97.202C67.7696 84.474 57.4515 74.156 44.7236 74.156C31.9957 74.156 21.6776 84.474 21.6776 97.202Z" fill="#D9D9D9" fill-opacity="0.2"/>
<path d="M16.9854 109.296C16.9854 111.885 19.084 113.983 21.6728 113.983C24.2616 113.983 26.3602 111.885 26.3602 109.296C26.3602 106.707 24.2616 104.608 21.6728 104.608C19.084 104.608 16.9854 106.707 16.9854 109.296Z" fill="#25F4EE"/>
<path d="M92.7522 63.4241C92.7522 83.9762 61.7241 101.265 51.7074 106.311C49.7578 107.293 47.5017 107.293 45.5521 106.311C35.5354 101.265 4.50732 83.9762 4.50732 63.4241C4.50732 52.5786 4.50732 34.6582 4.50732 34.6582V27.7697C4.50732 23.3559 8.2502 19.8484 12.6625 19.7203C17.1237 19.5907 22.5447 19.1046 26.5685 17.6905C32.1905 15.7148 38.2791 10.8053 42.6329 6.77284C45.9684 3.68338 51.3265 3.65134 54.6934 6.70659C59.1607 10.7604 65.4353 15.724 71.1932 17.6905C75.0995 19.0246 80.3321 19.5135 84.6639 19.6645C89.0506 19.8174 92.7522 23.3137 92.7522 27.7027V34.6582C92.7522 34.6582 92.7522 52.5786 92.7522 63.4241Z" fill="#FF949B"/>
<path fill-rule="evenodd" clip-rule="evenodd" d="M78.6964 59.3303H101.747V57.2104C101.747 50.8451 96.5872 45.685 90.2218 45.685C83.8565 45.685 78.6964 50.8451 78.6964 57.2105V59.3303ZM70.1454 59.3303H64.9539C59.9622 59.3303 55.9156 63.3769 55.9156 68.3687V115.294C55.9156 120.285 59.9622 124.332 64.9539 124.332H115.469C120.461 124.332 124.507 120.285 124.507 115.294V68.3687C124.507 63.3769 120.461 59.3303 115.469 59.3303H110.298V57.2104C110.298 46.1225 101.31 37.134 90.2218 37.134C79.1339 37.134 70.1454 46.1225 70.1454 57.2105V59.3303Z" fill="#5CD6D2"/>
<path fill-rule="evenodd" clip-rule="evenodd" d="M55.9156 104.099C68.4476 97.2471 92.7522 81.6137 92.7522 63.4241V59.3303H78.6964V57.2105C78.6964 50.8451 83.8565 45.685 90.2218 45.685C91.0911 45.685 91.9379 45.7812 92.7522 45.9636V37.2919C91.9234 37.1877 91.0789 37.134 90.2218 37.134C79.1339 37.134 70.1454 46.1225 70.1454 57.2105V59.3303H64.9539C59.9622 59.3303 55.9156 63.3769 55.9156 68.3687V104.099Z" fill="#223E70"/>
<path d="M93.2951 92.4052C92.4936 91.017 93.3444 89.2181 94.6592 88.3011C96.672 86.8972 97.9889 84.5645 97.9889 81.9245C97.9889 77.6341 94.5108 74.156 90.2204 74.156C85.9301 74.156 82.452 77.6341 82.452 81.9245C82.452 84.5645 83.7689 86.8972 85.7817 88.3011C87.0965 89.2181 87.9472 91.017 87.1457 92.4052L77.3939 109.296H103.047L93.2951 92.4052Z" fill="#FFEFC7"/>
</svg>
